<mxfile host="app.diagrams.net" modified="2024-05-07T01:43:15.261Z" agent="Mozilla/5.0 (Windows NT 10.0; Win64; x64) AppleWebKit/537.36 (KHTML, like Gecko) Chrome/124.0.0.0 Safari/537.36" version="24.3.1" etag="eF_IvlqaAhsQy-jpiVi4" type="github">
  <diagram name="Page-1" id="UHGcea83dTSiQA2FAM1Z">
    <mxGraphModel>
      <root>
        <mxCell id="0" />
        <mxCell id="1" parent="0" />
      </root>
    </mxGraphModel>
  </diagram>
</mxfile>
